<svg xmlns="http://www.w3.org/2000/svg" width="139" height="35" viewBox="0 0 139 35">
    <g fill="none" fill-rule="evenodd">
        <g fill="#23245B">
            <path d="M54.846 44.898c2.959-10.25 17.465-10.25 20.433 0 1.317 4.553 2.626 9.102 3.946 13.653.524 1.818-.503 3.716-2.314 4.272-1.798.552-3.717-.44-4.304-2.236-.44-1.349-.88-2.696-1.318-4.045H56.08c-.005 0-.01-.006-.016-.006-.01 0-.017.006-.027.006-.504 0-.91-.357-.91-.8 0-.44.406-.805.91-.805.01 0 .017.005.027.005.007 0 .01-.005.016-.005h14.685l-.972-2.983c-2.228-6.832-11.89-6.832-14.123 0-1.104 3.395-2.218 6.794-3.326 10.191-.491 1.525-2.73.833-2.287-.7 1.599-5.522 3.196-11.035 4.788-16.547zm46.43 6.597c.335.018.648.077.937.176.29.1.535.263.734.49.2.226.299.54.299.936 0 .454-.154.793-.462 1.02-.308.227-.675.39-1.1.488-.426.101-.866.155-1.318.164-.364.008-.674.012-.931.013h-1.243l-.36.014-.353.005c-.117 0-.233-.001-.347-.005-.345-.008-.698-.014-1.06-.014H95.04c.017.508.036 1.047.054 1.617.018.571-.01 1.065-.081 1.482-.038.344-.123.673-.26.992-.135.316-.357.574-.665.774-.226.151-.485.242-.773.274l-.177.011c-.363.01-.69-.068-.98-.23-.235-.146-.411-.354-.53-.626-.116-.27-.194-.534-.23-.788-.037-.2-.05-.417-.04-.652.008-.236.013-.453.013-.652-.018-.326-.027-.684-.027-1.073v-1.156h-.68c-.506 0-.964.005-1.372.014-.407.01-.801.02-1.182.027-.254.007-.514.011-.78.013l-.402.001h-1.373c-.416-.018-.811-.078-1.181-.177-.372-.099-.675-.33-.911-.693-.2-.308-.295-.638-.285-.99.009-.355.14-.659.394-.912.145-.145.326-.254.544-.326.217-.072.425-.127.625-.164.199-.035.375-.053.529-.053h15.069l.297-.012h.312c.107.002.216.006.328.012zm63.818-13.805c.435.018.783.15 1.046.394.262.245.462.54.597.884.137.344.222.702.26 1.073.035.371.053.702.053.992v16.563c0 .153-.018.339-.054.556-.037.218-.09.436-.163.653-.073.217-.19.398-.353.543-.127.127-.309.226-.544.299-.177.054-.343.088-.499.102l-.153.007c-.435 0-.779-.145-1.033-.435-.236-.254-.38-.516-.434-.788-.055-.272-.1-.561-.137-.87 0-.053-.005-.109-.013-.162-.009-.055-.014-.118-.014-.191-.036-.29-.054-.598-.054-.923 0-.327-.01-.653-.027-.979-.019-.199-.027-.394-.027-.584v-1.21c0-.38-.005-.81-.014-1.29-.009-.48-.013-.911-.013-1.291v-.299c0-.108-.019-.208-.055-.299-.254-.036-.502-.059-.747-.068-.245-.009-.494-.031-.747-.068-.309-.017-.603-.091-.884-.218-.28-.126-.52-.289-.72-.489-.199-.199-.336-.443-.407-.733-.073-.29-.064-.607.027-.951.036-.144.113-.299.231-.462.118-.163.231-.289.34-.381.253-.181.507-.298.76-.353.174-.021.37-.033.586-.035h.223c.077.002.156.004.237.008.164.008.319.01.466.01l.215-.006c.139-.006.27-.016.393-.031h.082v-.108c.017-.453.027-.839.027-1.156 0-.316-.01-.711-.027-1.182 0-.471-.005-.938-.014-1.4-.009-.461-.005-.919.014-1.372v-.38c0-.235.004-.494.013-.774.01-.281.031-.562.068-.843.036-.28.1-.543.19-.788.091-.244.218-.448.381-.612.272-.234.561-.353.87-.353h.054zm-23.343 14.104c.344.018.698.045 1.061.082.361.036.706.126 1.032.27.362.146.602.386.72.722.118.335.195.683.231 1.046.018.308.032.665.041 1.073.01.408.004.82-.014 1.236-.018.417-.045.829-.08 1.237-.038.407-.1.774-.19 1.1-.056.2-.12.376-.192.53-.072.154-.217.267-.435.34-.199.072-.403.117-.61.136l-.31.02-.302.007-14.158-.054c-.236-.018-.489-.028-.76-.028-.272 0-.508-.072-.707-.217-.019 0-.046-.018-.083-.055-.18-.145-.303-.357-.366-.638-.064-.281-.095-.52-.095-.72-.018-.327-.04-.652-.068-.978-.027-.327-.04-.643-.04-.952v-1.386c0-.452.045-.904.136-1.358.054-.29.144-.52.271-.693.127-.172.326-.312.598-.421.507-.2 1.014-.3 1.522-.3h12.798zm-34.13 1.63c.2.127.348.286.448.476.1.19.168.398.203.625.037.226.064.458.082.693.018.235.045.461.082.68 0 .072.004.14.014.203.008.064.031.113.067.15 0 .053.154.081.462.081.272.035.521.06.747.068.227.01.458.013.694.013 1.721 0 3.387-.013 5-.04 1.612-.028 3.278-.04 5-.04.271 0 .57.003.897.012.325.01.642.032.95.068.31.054.566.177.775.367.208.19.353.412.435.665.082.255.1.521.055.802-.046.281-.168.53-.368.747-.108.11-.22.208-.339.3-.119.09-.23.153-.34.19-.116.03-.197.047-.244.053l-.028.002h-14.756c-.36 0-.674-.019-.937-.055-.262-.037-.51-.127-.747-.27-.2-.11-.336-.25-.408-.423-.072-.172-.108-.358-.108-.557 0-.616-.023-1.232-.068-1.848-.046-.616-.023-1.214.068-1.793 0-.199.031-.376.094-.53.064-.155.16-.312.286-.476.254-.199.58-.313.978-.34.4-.026.734.032 1.006.177zm79.048-15.706c.381 0 .698.098.952.298.217.181.388.462.516.843.072.145.123.307.149.49.027.18.059.39.096.623.035.201.054.395.054.585v16.481c-.037.11-.054.209-.054.3 0 .09-.019.198-.055.325 0 .11-.01.214-.027.313-.018.1-.046.194-.082.285-.054.072-.081.136-.081.191-.036.108-.072.17-.109.19-.054.144-.122.266-.204.366-.081.1-.168.194-.258.286-.236.118-.469.19-.7.217l-.173.012c-.172.004-.343-.018-.513-.066-.253-.019-.489-.136-.706-.354-.091-.035-.163-.108-.218-.217-.054-.108-.099-.218-.135-.326-.037-.145-.073-.258-.109-.34-.037-.08-.073-.185-.109-.313-.018-.126-.027-.23-.027-.311V40.843c-.091-.417-.091-.798 0-1.142 0-.2.022-.385.068-.556.044-.173.104-.332.177-.477.09-.271.252-.498.489-.678.307-.181.66-.273 1.059-.273zm-36.032 1.141c1.45 0 2.848.004 4.198.013 1.35.01 2.75.013 4.2.013.361 0 .755.042 1.181.124.425.081.765.266 1.02.557.252.29.374.67.366 1.14-.01.472-.168.834-.476 1.088-.072.073-.182.136-.326.19-.217.097-.45.153-.7.17l-.19.004c-.065-.001-.13-.005-.197-.011-.159-.014-.314-.02-.465-.017l-.223.01c-.146.012-.288.033-.426.062.036.253.058.489.068.706.008.217.013.399.013.544v11.575c0-.01.03-.014.088-.012l.069.004.087.008c.164.018.345.041.544.068.2.028.39.059.571.096.181.036.29.054.326.054.435.073.761.186.98.339.216.155.297.503.243 1.047-.036.453-.127.783-.272.992-.145.208-.335.353-.57.434-.141.05-.294.082-.458.098l-.168.011h-.176c-.299-.009-.62-.014-.965-.014l-.453.014-.452.005c-.151 0-.302-.002-.453-.005-.453-.009-.897-.014-1.332-.014h-1.943c-.455 0-.933.006-1.434.016l-.509.012h-1.399c-.462 0-.929-.009-1.4-.028-.217 0-.475-.018-.774-.053-.299-.037-.589-.11-.87-.218-.28-.109-.52-.258-.72-.448-.199-.191-.318-.44-.354-.748-.053-.417.028-.729.245-.937.218-.208.49-.358.815-.449.327-.09.675-.139 1.047-.149.371-.009.683-.031.938-.068-.019-.344-.024-.679-.014-1.005.01-.326.014-.653.014-.979v-9.267c0-.053-.014-.234-.042-.542-.027-.309-.03-.67-.013-1.087-.272-.018-.543-.028-.815-.028-.272 0-.539-.027-.803-.081-.26-.055-.502-.15-.719-.286-.217-.135-.39-.348-.516-.639-.217-.416-.227-.815-.028-1.195.2-.38.498-.642.898-.788.415-.145.87-.235 1.358-.272.49-.036.951-.054 1.386-.054zm22.173-.272c.109.036.218.072.327.11.108.035.208.08.299.134.108.091.199.182.271.272.072.091.118.19.136.3.145.253.217.526.217.815.037.144.068.284.096.42.027.137.04.305.04.504v11.466c-.053.256-.053.527 0 .817v.326c0 .127.054.226.164.299.108.108.244.163.407.163h3.968c.198 0 .403.012.611.04.208.028.412.04.612.04.198 0 .38.005.542.016.164.009.309.012.436.012.144.037.298.059.461.069.164.008.327.048.489.121.327.018.626.136.898.353.144.128.243.236.298.327.037.09.063.176.082.258.018.082.045.168.082.258v.517c-.037.217-.087.417-.15.597-.064.18-.168.343-.312.489-.091.145-.223.264-.395.353-.172.09-.357.155-.557.192-.145 0-.275.013-.394.04-.118.027-.249.04-.394.04-.108 0-.227.014-.354.04-.084.02-.172.031-.265.037l-.142.005h-.515c-.11 0-.231-.005-.368-.014-.135-.01-.284-.032-.448-.069h-5.136c-.2 0-.38-.011-.543-.04-.164-.026-.336-.04-.517-.04-.145-.036-.29-.06-.435-.069-.145-.008-.29-.04-.434-.094-.272-.055-.508-.181-.707-.382-.127-.125-.218-.248-.271-.365-.055-.119-.109-.223-.164-.314-.072-.126-.118-.248-.136-.366-.017-.119-.045-.248-.081-.395-.091-.288-.145-.584-.163-.883-.018-.298-.027-.583-.027-.854.018-.31.027-.621.027-.938V43.83c0-.09-.004-.22-.014-.394-.009-.171-.013-.34-.013-.502v-1.168c0-.181.004-.363.013-.544.01-.18.014-.344.014-.49 0-.18.031-.365.095-.555.063-.19.113-.386.149-.585.163-.399.48-.708.952-.925l.285-.053c.099-.019.213-.028.34-.028.18-.055.389-.055.624 0zM131.782 54.85l-.384.002c-.38.009-.77.023-1.168.04-.145 0-.258.006-.34.015-.08.009-.14.095-.177.258-.036.126-.054.249-.054.366v.34c.018.036.023.073.014.109-.01.036-.014.082-.014.135 0 .092.004.177.014.259.01.082.04.14.095.176.037.037.095.058.176.068.082.009.168.014.258.014.091 0 .2-.01.327-.027h8.505l.733.054c.2.017.408.027.626.027.217 0 .416-.018.598-.054.18-.02.29-.068.326-.15.036-.081.063-.203.081-.367.018-.144.028-.313.028-.502 0-.19-.055-.358-.164-.503-.126-.145-.303-.222-.53-.231l-.219-.005-.204.005-.189.014h-7.553l-.396-.03-.39-.013zm23.53-12.647H153.3c-.073.071-.118.171-.136.298-.036.145-.058.386-.068.721-.009.334-.005.629.014.882.018.146.027.263.027.354v.272l-.055 9.511c0 .054.014.163.042.325.026.164.076.318.15.462h2.2v-10.38c0-.362-.005-.661-.013-.897l-.028-.706c-.009-.235-.023-.417-.04-.544 0-.108-.028-.208-.082-.298zm-40.463 3.396c.417.2.675.512.774.937.1.427.15.847.15 1.264v.951h1.657c.671 0 1.327-.009 1.971-.027l.478-.008.47.002c.31.004.614.015.913.033h1.005c.272.018.526.05.762.095.235.046.444.118.625.217.18.1.326.241.435.422.108.181.162.417.162.707 0 .308-.077.58-.23.815-.155.235-.386.39-.694.461-.315.088-.634.146-.955.174l-.323.018c-.108.003-.216.003-.325 0-.362-.013-.728-.021-1.099-.025l-.559-.004c-1.322 0-2.63.01-3.926.028l-1.946.02-1.953.007h-4.865c-.254 0-.53.005-.829.013-.299.01-.584-.013-.856-.068-.27-.054-.52-.153-.747-.298-.227-.145-.385-.372-.475-.68-.145-.36-.127-.706.054-1.032.181-.326.452-.544.815-.653.181-.09.362-.149.543-.176.182-.027.372-.04.571-.04.747.026 1.482.038 2.204.035l.717-.009c.951-.018 1.907-.027 2.868-.027v-1.63c0-.344.076-.639.231-.884.153-.244.357-.435.611-.57.253-.136.534-.213.842-.23.308-.019.616.035.924.162zm28.533-7.88c.58.09.951.317 1.114.679.11.217.177.485.204.8.027.32.041.514.041.586v8.859h-.028c0 .018-.009.08-.027.19-.018.109-.054.24-.108.394-.055.154-.136.313-.245.476-.109.162-.254.299-.435.407-.203.116-.406.185-.609.208l-.152.009c-.308 0-.606-.1-.896-.298-.218-.145-.37-.326-.462-.544-.109-.2-.18-.398-.218-.598-.036-.2-.064-.398-.08-.597v-2.745h-.653l-1.413-.096c-.418-.027-.744-.22-.979-.583-.108-.182-.163-.408-.163-.68 0-.272.018-.507.055-.707.054-.198.153-.366.3-.502.144-.136.397-.248.76-.34.071-.017.208-.031.407-.041.2-.01.411-.022.638-.04.227-.018.44-.032.64-.04.198-.01.334-.015.407-.015v-2.336c-.018-.2-.023-.4-.014-.598.01-.2.041-.4.095-.598.037-.145.073-.281.11-.408.035-.127.116-.262.244-.407.144-.181.35-.308.611-.381.262-.072.548-.09.856-.054zm-14.756.245c.254 0 .453.004.598.013.116.007.267.012.452.013h2.32c.11 0 .218-.004.327-.013.108-.01.216-.004.325.014h.762c.162 0 .325.004.49.013.161.009.315.013.46.013h.49c.163 0 .326.01.49.027h.243c.072 0 .145.019.218.056.108.036.208.072.298.108.163.09.317.19.462.299.145.108.263.245.354.407.163.273.267.562.312.87.045.308.068.616.068.924 0 .417.004.882.013 1.399l.028 1.577c.01.534.013 1.059.013 1.576 0 .515-.009.982-.027 1.399-.036.508-.045.979-.027 1.413.018.435-.099.87-.353 1.304-.146.254-.344.462-.598.626-.254.163-.52.263-.802.298-.28.037-.548.005-.8-.094-.255-.1-.464-.276-.626-.53-.326-.544-.494-1.06-.503-1.55-.01-.488-.005-1.05.013-1.684h-6.386c-.162 0-.294-.014-.393-.041-.1-.027-.205-.072-.313-.136-.109-.063-.2-.158-.27-.285-.11-.218-.165-.498-.165-.843 0-.343.063-.615.19-.815.127-.2.26-.317.394-.353l.422-.11c.145-.017.276-.04.393-.067.12-.027.26-.05.422-.068.996-.054 2.055-.081 3.18-.081h1.236c.462 0 .892.009 1.29.027v-1.046c0-.335-.018-.684-.054-1.047l-1.753-.053c-.589-.02-1.18-.046-1.779-.083-.598 0-1.214.024-1.848.069l-.383.019-.387.002c-.39-.005-.785-.036-1.187-.09-.308-.036-.539-.248-.693-.638-.154-.39-.23-.811-.23-1.263.017-.417.171-.725.461-.925.29-.2.59-.343.897-.434.381-.11.702-.168.965-.177.262-.01.593-.022.991-.04zm-29.863.284c.27.01.579.046.923.108.344.064.67.17.978.313.308.145.507.363.599.653.035.108.058.24.067.393.01.155.014.313.014.476 0 .163-.014.317-.04.462-.028.145-.06.254-.096.326-.072.146-.2.258-.381.34-.181.081-.353.14-.516.177-.162.036-.371.071-.625.108-.204.03-.44.047-.713.052l-.21.002h-.843c-.724-.035-1.39-.058-1.997-.068l-.908-.006-.9.006c-.597.01-1.222.018-1.874.028-.523.007-1.096.018-1.722.03l-.48.01c-.144 0-.308-.009-.488-.027l-.182-.012h-.182c-.06.002-.12.006-.18.012-.181.018-.336.055-.461.11-.128.053-.21.153-.245.298-.091.31-.127.597-.11.87.019.272.019.58 0 .923 0 .127-.004.263-.012.408-.011.146-.011.295 0 .448.008.154.04.295.094.421.054.128.145.237.273.327.125.09.31.136.556.136h.61c.654.037 1.274.053 1.863.053.588 0 1.209-.016 1.86-.053.96-.019 1.83-.028 2.61-.028h2.609c.869 0 1.62.145 2.255.435.2.091.362.227.489.408.127.181.208.371.245.57.09.4 0 .761-.272 1.087-.254.327-.561.566-.923.721-.364.153-.748.267-1.156.34-.306.054-.616.088-.932.1l-.317.007h-5.694c-.815 0-1.571.005-2.27.015-.558.007-1.153.011-1.786.013h-.482c-.272 0-.543-.018-.815-.054-.272-.037-.535-.095-.788-.177-.254-.08-.485-.204-.693-.367-.21-.163-.376-.37-.503-.624-.325-.635-.484-1.3-.476-1.998.01-.697.015-1.399.015-2.106v-1.848c0-.054-.01-.199-.028-.435-.018-.235-.023-.506-.013-.816.008-.307.036-.624.08-.95.046-.326.14-.598.287-.815.109-.18.285-.326.53-.435.244-.109.489-.19.733-.245.244-.054.466-.09.665-.109.2-.017.327-.026.38-.026h11.142l.436.013zm15.593-1.44l.198.003c.197.011.39.046.58.105.317.1.548.277.693.53.091.145.16.318.204.518.045.198.077.38.095.542.018.2.01.4-.027.598.49.453.97.887 1.441 1.305.397.362.806.72 1.222 1.073.417.353.77.63 1.06.83.38.307.83.624 1.345.95.517.326.928.698 1.237 1.114.126.163.221.354.285.571.063.217.082.44.054.665-.026.227-.1.435-.217.625-.118.19-.277.34-.476.45-.205.048-.4.077-.583.087l-.18.004c-.293-.005-.555-.063-.786-.174-.652-.307-1.29-.7-1.916-1.182-.624-.479-1.228-.928-1.807-1.345l-2.445-1.766c-.689.543-1.382 1.065-2.079 1.563-.697.498-1.409 1.001-2.133 1.507-.146.11-.309.223-.49.34-.18.118-.344.25-.489.393-.217.183-.47.341-.76.477-.29.136-.585.226-.884.271l-.178.02h-.174c-.173-.007-.34-.041-.504-.102-.27-.099-.489-.294-.652-.583-.073-.109-.127-.209-.163-.299-.037-.09-.054-.19-.054-.299-.018-.27.072-.548.272-.829.2-.28.434-.552.706-.815.272-.262.552-.508.843-.734.29-.226.516-.43.678-.61.69-.599 1.395-1.165 2.12-1.699.725-.534 1.431-1.1 2.12-1.699v-.788c0-.164.045-.362.136-.598.09-.289.281-.52.57-.693.29-.172.603-.276.938-.313l.2-.013zM65.063 28l.21.005c2.223.11 3.99 1.95 3.99 4.208 0 2.314-1.88 4.2-4.2 4.2-2.327 0-4.21-1.886-4.21-4.2 0-2.329 1.883-4.213 4.21-4.213z" transform="translate(-50 -28)"/>
        </g>
    </g>
</svg>
